<?xml version="1.0" standalone="no"?>
<!DOCTYPE svg PUBLIC "-//W3C//DTD SVG 20010904//EN"
 "http://www.w3.org/TR/2001/REC-SVG-20010904/DTD/svg10.dtd">
<svg version="1.0" xmlns="http://www.w3.org/2000/svg"
 width="500.000000pt" height="500.000000pt" viewBox="0 0 500.000000 500.000000"
 preserveAspectRatio="xMidYMid meet">
<metadata>
Created by potrace 1.14, written by Peter Selinger 2001-2017
</metadata>
<g transform="translate(0.000000,500.000000) scale(0.100000,-0.100000)"
fill="#000000" stroke="none">
<path d="M1364 4721 c-2 -2 11 -32 30 -65 18 -34 48 -90 67 -126 18 -36 36
-67 39 -70 3 -3 20 -33 38 -67 37 -72 38 -89 17 -245 -9 -62 -18 -129 -20
-148 -21 -155 -37 -279 -40 -300 -6 -43 -59 -461 -70 -550 -3 -25 -17 -128
-30 -230 -14 -102 -28 -205 -31 -230 -3 -25 -7 -56 -9 -70 -4 -26 -33 -247
-41 -310 -11 -89 -26 -204 -39 -295 -8 -55 -16 -120 -19 -145 -11 -93 -17
-136 -24 -185 -5 -28 -7 -56 -5 -61 5 -14 712 222 734 245 13 12 172 259 309
476 71 112 108 171 150 235 27 41 61 96 77 122 44 75 51 63 37 -65 -7 -62 -15
-149 -19 -193 -3 -43 -8 -97 -10 -119 -4 -41 -7 -74 -25 -260 -5 -60 -12 -128
-15 -150 -2 -22 -7 -76 -10 -120 -4 -44 -10 -108 -14 -143 -4 -35 -5 -65 -1
-67 5 -3 69 17 130 42 14 6 167 63 340 128 339 126 340 126 374 212 11 27 34
78 52 115 17 37 29 69 26 72 -3 3 0 6 6 6 7 0 12 6 12 14 0 8 9 31 20 53 23
45 110 234 110 238 0 2 15 36 34 77 18 40 89 195 156 343 68 149 138 304 157
345 19 41 66 145 105 230 39 85 88 193 109 238 22 46 39 85 39 87 0 3 78 173
176 383 19 41 34 80 34 88 0 8 3 14 8 14 4 0 13 15 21 33 26 63 69 158 143
320 23 48 38 90 35 94 -9 8 -1205 8 -1213 0 -5 -5 45 -77 66 -97 3 -3 17 -21
30 -40 13 -19 27 -37 30 -40 3 -3 42 -54 88 -113 81 -108 81 -109 68 -140 -16
-37 -51 -114 -94 -207 -16 -36 -53 -117 -82 -180 -29 -63 -67 -146 -85 -185
-18 -38 -63 -137 -100 -220 -38 -82 -74 -158 -80 -168 -9 -13 -12 39 -14 235
l-1 253 -38 34 c-55 49 -225 206 -305 281 -66 63 -97 82 -97 62 0 -5 -94 -175
-210 -376 -115 -202 -210 -369 -210 -372 0 -3 -5 -10 -11 -17 -6 -7 -29 -45
-52 -86 -40 -70 -76 -108 -64 -65 4 11 9 37 12 59 3 23 7 50 9 60 2 11 7 45
11 75 3 30 9 69 12 85 6 35 9 51 18 120 4 28 8 57 10 65 1 8 6 40 10 70 3 30
13 93 20 140 8 47 16 108 20 135 3 28 8 57 10 65 2 8 6 38 10 65 6 51 13 101
20 145 11 63 37 248 40 275 2 17 5 42 8 58 5 23 2 27 -16 28 -83 3 -979 3
-983 0z"/>
<path d="M1139 1445 c-52 -28 -55 -96 -5 -115 45 -17 101 6 116 46 14 35 13
41 -10 64 -23 23 -64 25 -101 5z"/>
<path d="M2059 1267 c-13 -23 -24 -44 -24 -47 0 -3 -5 -13 -11 -24 -10 -17
-13 -16 -46 15 -20 19 -49 46 -65 61 l-29 28 -59 -55 -60 -54 83 -84 83 -84
-20 -34 c-12 -19 -24 -41 -28 -49 -3 -8 -17 -32 -30 -53 -30 -47 -63 -106 -63
-111 0 -9 39 -18 95 -22 54 -5 61 -3 73 17 88 143 276 488 271 493 -16 14 -71
35 -105 39 -40 6 -42 5 -65 -36z"/>
<path d="M2970 1295 c-131 -27 -196 -94 -225 -231 -28 -136 24 -250 131 -288
165 -58 349 84 362 280 12 183 -92 275 -268 239z m94 -194 c14 -12 17 -25 13
-60 -6 -52 -45 -96 -94 -106 -28 -6 -38 -2 -64 25 -27 27 -31 36 -26 67 14 84
111 127 171 74z"/>
<path d="M3535 1298 c-59 -8 -135 -36 -135 -49 0 -5 -5 -9 -11 -9 -17 0 -48
-40 -77 -100 -35 -73 -41 -195 -11 -254 39 -81 97 -118 190 -122 70 -3 140 27
198 85 69 69 102 160 94 260 -10 136 -108 210 -248 189z m48 -179 c30 -16 37
-28 37 -67 0 -87 -104 -152 -157 -99 -23 23 -32 71 -18 103 15 37 31 50 75 62
19 6 36 11 38 11 2 1 13 -4 25 -10z"/>
<path d="M1573 1263 c-21 -22 -54 -60 -73 -86 -19 -25 -38 -47 -42 -47 -5 0
-8 36 -8 80 l0 80 -72 -5 c-40 -3 -76 -9 -81 -14 -8 -8 -17 -473 -9 -497 2 -7
25 -10 63 -7 95 6 99 8 99 58 0 17 11 43 23 59 l23 29 55 -66 c30 -37 59 -67
65 -67 9 0 34 24 92 91 l23 26 -42 54 c-24 30 -46 56 -51 57 -5 2 -13 12 -18
22 -8 15 -1 29 32 72 23 29 45 55 48 58 4 3 11 14 17 24 12 22 5 31 -64 85
l-43 33 -37 -39z"/>
<path d="M2395 1294 c-11 -3 -44 -12 -72 -20 l-53 -15 0 -249 0 -249 98 4
c132 5 186 18 258 63 50 31 74 68 74 115 0 50 -8 65 -46 91 l-34 23 25 33 c49
67 38 132 -31 179 -29 20 -50 25 -117 27 -45 2 -91 1 -102 -2z m96 -133 c13
-2 16 -37 4 -48 -16 -15 -85 -28 -86 -17 -7 46 -5 56 15 63 17 7 41 8 67 2z
m26 -192 c30 -30 -16 -69 -81 -69 -30 0 -33 3 -32 28 1 15 5 33 9 40 10 15 89
16 104 1z"/>
<path d="M4098 1259 c-18 -22 -41 -51 -52 -62 -10 -12 -25 -32 -33 -44 -9 -13
-18 -23 -22 -23 -4 0 -8 33 -8 73 -1 39 -2 76 -2 81 -1 11 -141 0 -152 -11 -7
-7 -11 -145 -9 -406 l0 -107 73 6 c39 3 76 10 81 14 5 5 9 25 8 45 -1 19 3 35
8 35 6 0 10 5 10 11 0 6 6 17 14 25 17 16 16 17 86 -70 l45 -56 58 59 c60 62
65 71 45 93 -7 7 -34 38 -60 69 l-47 56 60 72 c32 40 59 76 59 80 0 13 -106
101 -120 101 -5 0 -23 -18 -42 -41z"/>
<path d="M880 1178 c-12 -62 -24 -124 -27 -138 -10 -56 -26 -32 -47 72 -2 7
-6 20 -9 28 -3 8 -12 42 -20 75 l-14 60 -56 1 c-32 1 -60 -3 -65 -10 -5 -6
-19 -56 -31 -111 -12 -55 -24 -107 -26 -115 -2 -8 -4 -22 -5 -30 -2 -41 -38
66 -69 213 -5 21 -11 41 -15 44 -3 3 -32 0 -63 -7 -32 -8 -61 -14 -65 -14 -17
-2 -20 -19 -10 -53 6 -21 23 -78 37 -128 15 -49 43 -141 63 -203 l36 -114 80
6 c45 3 82 5 82 6 3 0 33 109 40 140 l7 35 14 -50 c9 -28 18 -57 21 -65 3 -8
6 -21 8 -28 8 -43 11 -44 92 -37 42 3 81 10 85 14 9 9 31 90 84 311 46 195 46
192 33 200 -6 4 -40 8 -74 9 l-63 2 -23 -113z"/>
<path d="M1145 1283 c-22 -3 -44 -8 -50 -13 -10 -9 -11 -470 -1 -497 5 -13 66
-12 134 3 l22 4 -2 253 -3 252 -30 1 c-16 1 -48 -1 -70 -3z"/>
<path d="M4460 1281 c-150 -30 -215 -223 -103 -308 30 -23 46 -27 104 -28 74
-2 103 -15 81 -37 -14 -14 -100 -17 -169 -5 -46 7 -49 5 -58 -39 -18 -93 -18
-91 12 -99 217 -55 336 -11 378 141 9 35 -11 104 -41 135 -30 31 -59 40 -145
42 -47 2 -54 5 -57 23 -2 15 4 23 19 27 24 7 112 2 151 -8 25 -6 26 -4 40 57
9 43 11 65 3 71 -31 22 -158 39 -215 28z"/>
</g>
</svg>
